<?xml version="1.0" encoding="UTF-8"?>
<!DOCTYPE svg PUBLIC "-//W3C//DTD SVG 1.1//EN" "http://www.w3.org/Graphics/SVG/1.1/DTD/svg11.dtd">
<svg xmlns="http://www.w3.org/2000/svg" version="1.1" width="96px" height="32px" style="shape-rendering:geometricPrecision; text-rendering:geometricPrecision; image-rendering:optimizeQuality; fill-rule:evenodd; clip-rule:evenodd" xmlns:xlink="http://www.w3.org/1999/xlink">
<g><path style="opacity:1" fill="#6fa9ff" d="M 19.5,11.5 C 19.1892,16.159 16.8559,17.4923 12.5,15.5C 11.5713,14.3112 11.238,12.9778 11.5,11.5C 11.2591,5.37998 13.7591,3.71331 19,6.5C 19.4935,8.13414 19.6602,9.80081 19.5,11.5 Z"/></g>
<g><path style="opacity:1" fill="#6fa9ff" d="M 51.5,11.5 C 51.1892,16.159 48.8559,17.4923 44.5,15.5C 43.5713,14.3112 43.238,12.9778 43.5,11.5C 43.2591,5.37998 45.7591,3.71331 51,6.5C 51.4935,8.13414 51.6602,9.80081 51.5,11.5 Z"/></g>
<g><path style="opacity:1" fill="#6fa9ff" d="M 83.5,11.5 C 83.1892,16.159 80.8559,17.4923 76.5,15.5C 75.5713,14.3112 75.238,12.9778 75.5,11.5C 75.2591,5.37998 77.7591,3.71331 83,6.5C 83.4935,8.13414 83.6602,9.80081 83.5,11.5 Z"/></g>
<g><path style="opacity:1" fill="#818281" d="M 11.5,11.5 C 11.238,12.9778 11.5713,14.3112 12.5,15.5C 16.8559,17.4923 19.1892,16.159 19.5,11.5C 24.0535,11.4523 27.7202,13.119 30.5,16.5C 29.8113,18.3527 28.478,19.5193 26.5,20C 19.1667,23.3333 11.8333,23.3333 4.5,20C -0.833333,17.6667 -0.833333,15.3333 4.5,13C 6.73999,12.023 9.07332,11.523 11.5,11.5 Z"/></g>
<g><path style="opacity:1" fill="#86807f" d="M 43.5,11.5 C 43.238,12.9778 43.5713,14.3112 44.5,15.5C 48.8559,17.4923 51.1892,16.159 51.5,11.5C 56.0535,11.4523 59.7202,13.119 62.5,16.5C 61.8113,18.3527 60.478,19.5193 58.5,20C 51.1667,23.3333 43.8333,23.3333 36.5,20C 31.1667,17.6667 31.1667,15.3333 36.5,13C 38.74,12.023 41.0733,11.523 43.5,11.5 Z"/></g>
<g><path style="opacity:1" fill="#86807f" d="M 75.5,11.5 C 75.238,12.9778 75.5713,14.3112 76.5,15.5C 80.8559,17.4923 83.1892,16.159 83.5,11.5C 88.0535,11.4523 91.7202,13.119 94.5,16.5C 93.8113,18.3527 92.478,19.5193 90.5,20C 83.1667,23.3333 75.8333,23.3333 68.5,20C 63.1667,17.6667 63.1667,15.3333 68.5,13C 70.74,12.023 73.0733,11.523 75.5,11.5 Z"/></g>
<g><path style="opacity:1" fill="#545554" d="M 14.5,19.5 C 15.1667,19.5 15.8333,19.5 16.5,19.5C 20.9528,18.3985 25.2862,17.2319 29.5,16C 20.1667,22 10.8333,22 1.5,16C 5.71384,17.2319 10.0472,18.3985 14.5,19.5 Z"/></g>
<g><path style="opacity:1" fill="#545554" d="M 33.5,16.5 C 33.56,15.9569 33.8933,15.6236 34.5,15.5C 38.5904,17.6062 42.9238,18.9395 47.5,19.5C 52.3517,18.5957 57.0184,17.429 61.5,16C 52.2871,21.8165 42.9538,21.9832 33.5,16.5 Z"/></g>
<g><path style="opacity:1" fill="#545554" d="M 65.5,16.5 C 65.56,15.9569 65.8933,15.6236 66.5,15.5C 70.5904,17.6062 74.9238,18.9395 79.5,19.5C 84.3517,18.5957 89.0184,17.429 93.5,16C 84.2871,21.8165 74.9538,21.9832 65.5,16.5 Z"/></g>
<g><path style="opacity:1" fill="#fe0000" d="M 16.5,19.5 C 15.8333,19.5 15.1667,19.5 14.5,19.5C 15.1667,16.8333 15.8333,16.8333 16.5,19.5 Z"/></g>
</svg>